<?xml version="1.0" encoding="utf-8"?>
<!-- Generator: Adobe Illustrator 21.1.0, SVG Export Plug-In . SVG Version: 6.00 Build 0)  -->
<svg version="1.1" id="Layer_1" xmlns="http://www.w3.org/2000/svg" xmlns:xlink="http://www.w3.org/1999/xlink" x="0px" y="0px"
	 viewBox="0 0 141.7 141.7" style="enable-background:new 0 0 141.7 141.7;" xml:space="preserve">
<style type="text/css">
	.st0{fill:#262262;}
	.st1{fill:#FFFFFF;stroke:#282560;stroke-width:1.0259;stroke-miterlimit:10;}
	.st2{fill:#282560;}
</style>
<g>
	<path class="st0" d="M104.2,104.9l-13.7-3.6l-2.8-12.6l-14.5,14.5c0,0-2.5,2.6-5.7,0.1c-3.2-2.5-12.2-11.6-12.2-11.6L43,94.6
		L39.3,108l11.9,12c0,0,4,4.4,10.2,5.8c8.1,1.9,9.1,1.8,16.9,0.1c5.8-1.3,10.3-5.6,10.3-5.6L104.2,104.9z"/>
	<path class="st0" d="M36.1,37.2l13.7,3.6l2.8,12.6l14.5-14.5c0,0,2.5-2.6,5.7-0.1C76,41.3,85,50.4,85,50.4l12.3-2.8l3.6-13.4
		L89,22.2c0,0-4-4.4-10.2-5.8c-8.1-1.9-9.1-1.8-16.9-0.1c-5.8,1.3-10.3,5.6-10.3,5.6L36.1,37.2z"/>
	<g>
		<path class="st0" d="M20.9,91.1c-0.3-0.2-0.5-0.5-0.4-0.9c0-1.2,0-2.5,0-3.7c0-0.7,0.2-1,0.9-0.9c0.4,0,0.5-0.1,0.5-0.5
			c0-0.8,0-1.6,0-2.4c-0.2,0-0.5,0-0.7,0c-0.5,0-0.7-0.3-0.7-0.7c0-1.4,0-2.7,0-4.1c0-0.6,0.3-0.8,0.9-0.8c0.6,0,0.6,0,0.6-0.6
			c0-0.9,0-1.8,0-2.7c0-0.8,0.2-1,1-1c5.2,0,10.3,0,15.5,0c0.8,0,1.5,0,2.3,0c0.8,0,1,0.2,1,1c0,1.2,0,2.4,0,3.6c0,0.8-0.2,1-1,1
			c-0.1,0-0.3,0-0.4,0c0,1,0,1.9,0,2.9c0.2,0,0.5,0,0.7,0c0.4,0,0.7,0.2,0.7,0.7c0,1.4,0,2.8,0,4.3c0,0.5-0.3,0.7-0.8,0.7
			c-0.6,0-0.6-0.1-0.6,0.6c0,0.9,0,1.8,0,2.7c0,0.4-0.1,0.7-0.4,1C33.5,91.1,27.2,91.1,20.9,91.1z M40.3,82.6c-5.7,0-11.4,0-17.1,0
			c0,0.8,0,1.6,0,2.4c0,0.4,0.1,0.6,0.5,0.6c5.4,0,10.8,0,16.1,0c0.2,0,0.3,0,0.5,0C40.3,84.5,40.3,83.5,40.3,82.6z M23.2,74.1
			c0,0.8,0,1.6,0,2.3c0,0.6,0,0.6,0.6,0.6c5.3,0,10.7,0,16,0c0.1,0,0.2,0,0.4,0c0.1,0,0.2-0.1,0.2-0.2c0-0.9,0-1.8,0-2.7
			C34.6,74.1,28.9,74.1,23.2,74.1z M38.9,78.3c-0.2,0-0.4,0-0.6,0c-3.7,0-7.5,0-11.2,0c-1.6,0-3.3,0-4.9,0c-0.4,0-0.5,0.1-0.5,0.5
			c0,0.7,0,1.3,0,2c0,0.4,0.1,0.5,0.5,0.5c5.4,0,10.8,0,16.1,0c0.2,0,0.3,0,0.5,0C38.9,80.2,38.9,79.3,38.9,78.3z M38.9,86.8
			c-0.2,0-0.4,0-0.6,0c-5.3,0-10.7,0-16,0c-0.1,0-0.1,0-0.2,0c-0.3,0-0.4,0.1-0.4,0.4c0,0.5,0,1,0,1.5c0,0.4,0,0.7,0,1.1
			c5.8,0,11.4,0,17.1,0C38.9,88.8,38.9,87.8,38.9,86.8z"/>
		<path class="st0" d="M30.3,52.8c-5.4,0-9.9,4.5-9.9,9.9c0,5.2,4.1,9.9,9.9,9.9c5.9,0,9.9-4.8,9.9-9.9
			C40.3,57.2,35.8,52.8,30.3,52.8z M30.3,71.2c-4.7-0.1-8.5-3.9-8.5-8.7c0.1-4.7,4-8.5,8.7-8.5c4.7,0.1,8.5,4,8.4,8.6
			C38.9,67.5,35,71.3,30.3,71.2z"/>
		<path class="st0" d="M32.7,60.6c0,0.4,0.3,0.6,0.7,0.6c0.4,0,0.6-0.2,0.6-0.6c0-0.4,0-0.7,0-1.1c-0.1-1.2-1.1-2.2-2.3-2.4
			c-0.1,0-0.3,0-0.4-0.1c0,0,0-0.1,0-0.1c0-0.4,0-0.8,0-1.2c0-0.5-0.3-0.8-0.7-0.8c-0.4,0-0.6,0.3-0.6,0.8c0,0.3,0,0.6,0,0.9
			c0,0.3-0.1,0.5-0.4,0.6c-1.6,0.4-2.6,1.8-2.4,3.4c0.2,1.5,1.5,2.7,3,2.7c0.4,0,0.7,0,1.1,0.1c0.9,0.1,1.5,0.9,1.5,1.8
			c0,0.9-0.6,1.7-1.5,1.8c-0.3,0.1-0.7,0-1.1,0c-1.1,0-1.6-0.4-1.8-1.5c-0.1-0.4-0.4-0.7-0.8-0.6c-0.4,0-0.6,0.3-0.6,0.8
			c0,1.3,1,2.4,2.3,2.6c0.2,0,0.3,0.1,0.5,0.1c0,0.5,0,0.9,0,1.3c0,0.5,0.2,0.7,0.6,0.7c0.4,0,0.7-0.3,0.7-0.8c0-0.3,0-0.6,0-0.9
			c0-0.4,0.1-0.5,0.5-0.6c1.5-0.3,2.5-1.7,2.4-3.2c-0.1-1.5-1.2-2.8-2.7-3c-0.4-0.1-0.8,0-1.2-0.1c-1,0-1.7-0.8-1.8-1.8
			c0-1,0.7-1.8,1.7-1.9c0.4,0,0.8,0,1.2,0c0.8,0,1.4,0.6,1.4,1.4C32.7,60.1,32.6,60.3,32.7,60.6z"/>
	</g>
	<g>
		<path class="st1" d="M117.8,92.4h-15.3c-0.8,0-1.5-0.7-1.5-1.5V53.5c0-0.8,0.7-1.5,1.5-1.5h15.3c0.8,0,1.5,0.7,1.5,1.5v37.3
			C119.4,91.7,118.7,92.4,117.8,92.4z"/>
		<path class="st2" d="M102.7,62.8c0-2.1,0-4.3,0-6.4c0-1.2,0.4-1.6,1.6-1.6c3.9,0,7.9,0,11.8,0c1.2,0,1.6,0.4,1.6,1.6
			c0,4.3,0,8.7,0,13c0,1.1-0.5,1.5-1.7,1.6c-3.9,0-7.8,0-11.7,0c-1.2,0-1.6-0.4-1.6-1.6C102.7,67.1,102.7,65,102.7,62.8z"/>
		<g>
			<path class="st2" d="M106.4,76.7h-2.8c-0.4,0-0.8-0.3-0.8-0.8v-1.4c0-0.4,0.3-0.8,0.8-0.8h2.8c0.4,0,0.8,0.3,0.8,0.8v1.4
				C107.2,76.4,106.9,76.7,106.4,76.7z"/>
			<path class="st2" d="M116.7,76.7H114c-0.4,0-0.8-0.3-0.8-0.8v-1.4c0-0.4,0.3-0.8,0.8-0.8h2.8c0.4,0,0.8,0.3,0.8,0.8v1.4
				C117.5,76.4,117.1,76.7,116.7,76.7z"/>
			<path class="st2" d="M111.5,76.7h-2.8c-0.4,0-0.8-0.3-0.8-0.8v-1.4c0-0.4,0.3-0.8,0.8-0.8h2.8c0.4,0,0.8,0.3,0.8,0.8v1.4
				C112.3,76.4,111.9,76.7,111.5,76.7z"/>
			<path class="st2" d="M106.4,81.3h-2.8c-0.4,0-0.8-0.3-0.8-0.8v-1.4c0-0.4,0.3-0.8,0.8-0.8h2.8c0.4,0,0.8,0.3,0.8,0.8v1.4
				C107.2,81,106.9,81.3,106.4,81.3z"/>
			<path class="st2" d="M116.7,81.3H114c-0.4,0-0.8-0.3-0.8-0.8v-1.4c0-0.4,0.3-0.8,0.8-0.8h2.8c0.4,0,0.8,0.3,0.8,0.8v1.4
				C117.5,81,117.1,81.3,116.7,81.3z"/>
			<path class="st2" d="M111.5,81.3h-2.8c-0.4,0-0.8-0.3-0.8-0.8v-1.4c0-0.4,0.3-0.8,0.8-0.8h2.8c0.4,0,0.8,0.3,0.8,0.8v1.4
				C112.3,81,111.9,81.3,111.5,81.3z"/>
			<path class="st2" d="M106.4,86.1h-2.8c-0.4,0-0.8-0.3-0.8-0.8v-1.4c0-0.4,0.3-0.8,0.8-0.8h2.8c0.4,0,0.8,0.3,0.8,0.8v1.4
				C107.2,85.7,106.9,86.1,106.4,86.1z"/>
			<path class="st2" d="M116.7,86.1H114c-0.4,0-0.8-0.3-0.8-0.8v-1.4c0-0.4,0.3-0.8,0.8-0.8h2.8c0.4,0,0.8,0.3,0.8,0.8v1.4
				C117.5,85.7,117.1,86.1,116.7,86.1z"/>
			<path class="st2" d="M111.5,86.1h-2.8c-0.4,0-0.8-0.3-0.8-0.8v-1.4c0-0.4,0.3-0.8,0.8-0.8h2.8c0.4,0,0.8,0.3,0.8,0.8v1.4
				C112.3,85.7,111.9,86.1,111.5,86.1z"/>
		</g>
		<path class="st2" d="M112.1,53.8h-3.9c-0.1,0-0.2-0.1-0.2-0.2l0,0c0-0.1,0.1-0.2,0.2-0.2h3.9c0.1,0,0.2,0.1,0.2,0.2l0,0
			C112.4,53.7,112.3,53.8,112.1,53.8z"/>
	</g>
</g>
</svg>
